<svg xmlns="http://www.w3.org/2000/svg" viewBox="0 0 380 420"><defs><style>.cls-1{fill:#fff;}</style></defs><title>fg</title><g id="Layer_1" data-name="Layer 1"><path class="cls-1" d="M255,83h65a25,25,0,0,0,25-25V33H125a90,90,0,0,0-90,90V293H60a25,25,0,0,0,25-25V213h30a25,25,0,0,0,25-25V163H85V123a40,40,0,0,1,40-40h49.36A89.61,89.61,0,0,0,165,123v80c0,49.25,40,89.25,89,90v0h91V188a25,25,0,0,0-25-25H295v80H255a40,40,0,0,1-40-40V123A40,40,0,0,1,255,83Z"/><path class="cls-1" d="M78,326H56.72A21.79,21.79,0,0,0,35,348v41.51l6,.06a6.23,6.23,0,0,0,6-5.92L47.12,370h9.52A6.41,6.41,0,0,0,63,363.79V358H47V348a9.83,9.83,0,0,1,9.76-10H72.24A5.69,5.69,0,0,0,78,332v-6Z"/><path class="cls-1" d="M96.67,363.1a10.13,10.13,0,0,0-.17-3.68,8.72,8.72,0,0,0-1.38-3.1,7.18,7.18,0,0,0-2.43-2.13,7,7,0,0,0-3.39-.79,8.56,8.56,0,0,0-3.47.75,9,9,0,0,0-3.14,2.38,12.45,12.45,0,0,0-2.3,4.18,19,19,0,0,0-.88,6.15q0,7.28,3.26,11.25a10.51,10.51,0,0,0,8.53,4,23.2,23.2,0,0,0,5.73-.71q.79-.2,1.66-.48a5.47,5.47,0,0,1,6.78,3.3l1,2.58A39.28,39.28,0,0,1,98,389.83a36.54,36.54,0,0,1-7.91.88,21.78,21.78,0,0,1-9.91-2.09,21,21,0,0,1-6.86-5.4,21.81,21.81,0,0,1-4-7.49,28.36,28.36,0,0,1-1.3-8.45A23.86,23.86,0,0,1,69.69,358a19.9,19.9,0,0,1,4.68-6.9,20.58,20.58,0,0,1,7-4.31,24.1,24.1,0,0,1,8.53-1.51,19.34,19.34,0,0,1,8.45,1.84,15.92,15.92,0,0,1,6.19,5.1,16.54,16.54,0,0,1,2.89,7.82,22.34,22.34,0,0,1-1.3,9.91H82.7a13.48,13.48,0,0,1,2.64-4.89,5.07,5.07,0,0,1,3.89-2Z"/><path class="cls-1" d="M140.84,363.1a10.13,10.13,0,0,0-.17-3.68,8.72,8.72,0,0,0-1.38-3.1,7.18,7.18,0,0,0-2.43-2.13,7,7,0,0,0-3.39-.79,8.56,8.56,0,0,0-3.47.75,9,9,0,0,0-3.14,2.38,12.45,12.45,0,0,0-2.3,4.18,19,19,0,0,0-.88,6.15q0,7.28,3.26,11.25a10.51,10.51,0,0,0,8.53,4,23.2,23.2,0,0,0,5.73-.71q.79-.2,1.66-.48a5.47,5.47,0,0,1,6.78,3.3l1,2.58a39.28,39.28,0,0,1-8.49,3.05,36.54,36.54,0,0,1-7.91.88,21.78,21.78,0,0,1-9.91-2.09,21,21,0,0,1-6.86-5.4,21.81,21.81,0,0,1-4-7.49,28.36,28.36,0,0,1-1.3-8.45,23.86,23.86,0,0,1,1.71-9.29,19.9,19.9,0,0,1,4.68-6.9,20.58,20.58,0,0,1,7-4.31,24.1,24.1,0,0,1,8.53-1.51,19.34,19.34,0,0,1,8.45,1.84,15.92,15.92,0,0,1,6.19,5.1,16.54,16.54,0,0,1,2.89,7.82,22.34,22.34,0,0,1-1.3,9.91H126.87a13.48,13.48,0,0,1,2.64-4.89,5.07,5.07,0,0,1,3.89-2Z"/><path class="cls-1" d="M175.47,390.71a18.63,18.63,0,0,1-8.11-1.71,16.62,16.62,0,0,1-6-4.81,22.34,22.34,0,0,1-3.72-7.32,31,31,0,0,1-1.3-9.16,23.87,23.87,0,0,1,1.51-8.45,23.54,23.54,0,0,1,4.06-7,20.26,20.26,0,0,1,5.9-4.81,14.48,14.48,0,0,1,6.94-1.8,29.92,29.92,0,0,1,4.22.29,43.11,43.11,0,0,1,5.31,1.21,17.41,17.41,0,0,1-2.68,4.73,5.11,5.11,0,0,1-3.6,2,9.31,9.31,0,0,0-4.35,1.25,8.54,8.54,0,0,0-2.84,2.89,13.32,13.32,0,0,0-1.59,4.31,27.74,27.74,0,0,0-.5,5.44,25,25,0,0,0,.59,5.52,16.28,16.28,0,0,0,1.71,4.56,9.55,9.55,0,0,0,2.8,3.14,6.4,6.4,0,0,0,3.76,1.17q4.6,0,9.7-5.86v-50h5.58a6.13,6.13,0,0,1,6.13,6.13v46.73a45,45,0,0,0,.29,5,49.32,49.32,0,0,0,1,5.56h-9a4.92,4.92,0,0,1-1.81-1.67,10.59,10.59,0,0,1-1.14-2.26l-.42-1.92-1.42,1.84a21.64,21.64,0,0,1-5.9,4A13.27,13.27,0,0,1,175.47,390.71Z"/><path class="cls-1" d="M257.41,333.83a6.93,6.93,0,0,1,2-5,6.87,6.87,0,0,1,9.79,0,6.93,6.93,0,0,1,2,5,6.86,6.86,0,1,1-13.72,0Z"/><path class="cls-1" d="M258.41,389.62v-36a7.26,7.26,0,0,1,7.26-7.26h4.45v35.88a7.37,7.37,0,0,1-7.37,7.37Z"/><path class="cls-1" d="M278,383.51a4.62,4.62,0,0,1,5.66-2.93q1.47.43,2.78.68a29.82,29.82,0,0,0,5.69.59,6.57,6.57,0,0,0,4.52-1.3,3.79,3.79,0,0,0-.08-6,18.22,18.22,0,0,0-3.76-2.34q-2.26-1.09-4.85-2.17a27,27,0,0,1-4.85-2.64,14.2,14.2,0,0,1-3.76-3.76,9.68,9.68,0,0,1-1.51-5.56,12.5,12.5,0,0,1,.79-4.22,10.59,10.59,0,0,1,2.64-4,14.79,14.79,0,0,1,4.81-3,19.17,19.17,0,0,1,7.24-1.21,41.74,41.74,0,0,1,5.81.42,40.66,40.66,0,0,1,7,1.76l-1.3,3.66a4.61,4.61,0,0,1-5.21,3q-.78-.15-1.43-.25a28.44,28.44,0,0,0-4.1-.29,6.57,6.57,0,0,0-3.81,1,3.12,3.12,0,0,0-1.38,2.72,3.8,3.8,0,0,0,1.51,3,18.17,18.17,0,0,0,3.76,2.34q2.26,1.09,4.85,2.26a29.68,29.68,0,0,1,4.85,2.76,14.82,14.82,0,0,1,3.76,3.81,9.53,9.53,0,0,1,1.51,5.48,11.91,11.91,0,0,1-1.25,5.48,12.91,12.91,0,0,1-3.35,4.18,15.18,15.18,0,0,1-4.81,2.64,17.51,17.51,0,0,1-5.65.92,54.48,54.48,0,0,1-7.45-.59,40.65,40.65,0,0,1-9.79-2.93Z"/><path class="cls-1" d="M319.48,354.66h-6.94V348l6.94-1.67V336.08l11-3.6v40.57a10.83,10.83,0,0,0,1.8,6.65,5.64,5.64,0,0,0,4.73,2.38,17.26,17.26,0,0,0,2.72-.25l.63-.12a3.58,3.58,0,0,1,4.14,2.42l1.37,4.31q-3.18,1.09-5.56,1.67a18.86,18.86,0,0,1-4.48.59q-8,0-12.21-4.52t-4.18-13.13Zm22.25,0a6.33,6.33,0,0,1-3.22-.79,9,9,0,0,1-2.38-2,11.11,11.11,0,0,1-1.67-2.64,21.36,21.36,0,0,1-1.09-2.89h12.13v8.28Z"/><path class="cls-1" d="M228.93,326A22,22,0,0,0,207,347.94v7.78h0v11.56a21.91,21.91,0,0,0,21.67,21.89l22.33.12V363.64c0-3.36-2.89-5.64-6.25-5.64H239v19H228.94a9.9,9.9,0,0,1-9.94-9.72V347.82a10,10,0,0,1,9.94-9.82h15.81a6.15,6.15,0,0,0,6.25-6v-6Z"/></g></svg>