<svg xmlns="http://www.w3.org/2000/svg" viewBox="0 0 1627.66 526"><defs><style>.cls-1{fill:#fff;}</style></defs><title>fg</title><g id="Layer_1" data-name="Layer 1"><path class="cls-1" d="M688,170H622.9c-36.07,0-64.9,29.67-64.9,66.1V360.16l17.89.18c9.95,0,17.84-9.11,18.07-18.11l.26-41.23h28.44c10.09,0,20.33-7.65,20.33-17.74V265H595V236.1C595,220,606.21,207,623,207h46.25A18.93,18.93,0,0,0,688,188.17V170Z"/><path class="cls-1" d="M360.49,183h65C439.3,183,450,171.81,450,158V133H230.49C180.79,133,140,173.29,140,223V393h25.49C179.3,393,190,381.81,190,368V313h30.49C234.3,313,245,301.81,245,288V263H190V223c0-22.09,18.4-40,40.49-40h49.36A90,90,0,0,0,270,223v80c0,49.25,40,89.25,89,90v0h91V288c0-13.81-10.7-25-24.51-25H400v80H360.49C338.4,343,320,325.09,320,303V223C320,200.91,338.4,183,360.49,183Z"/><path class="cls-1" d="M742.3,281.21a30.28,30.28,0,0,0-.5-11,26.07,26.07,0,0,0-4.12-9.25,21.45,21.45,0,0,0-7.25-6.38,20.91,20.91,0,0,0-10.12-2.37,25.58,25.58,0,0,0-10.37,2.25,26.73,26.73,0,0,0-9.37,7.13,37.21,37.21,0,0,0-6.87,12.5A56.76,56.76,0,0,0,691,292.46q0,21.75,9.75,33.63T726.3,338a69.32,69.32,0,0,0,17.13-2.12q2.38-.6,5-1.44a16.35,16.35,0,0,1,20.26,9.86l2.9,7.7a117.39,117.39,0,0,1-25.37,9.13,109.2,109.2,0,0,1-23.62,2.63q-17.25,0-29.62-6.25a62.67,62.67,0,0,1-20.5-16.12,65.19,65.19,0,0,1-12-22.37,84.74,84.74,0,0,1-3.87-25.25A71.3,71.3,0,0,1,661.67,266a59.48,59.48,0,0,1,14-20.63,61.5,61.5,0,0,1,20.88-12.87A72,72,0,0,1,722,228a57.81,57.81,0,0,1,25.25,5.5,47.59,47.59,0,0,1,18.5,15.25,49.42,49.42,0,0,1,8.63,23.38q1.62,13.63-3.87,29.63h-70a40.28,40.28,0,0,1,7.88-14.62q5.12-5.87,11.63-5.87Z"/><path class="cls-1" d="M874.29,281.21a30.28,30.28,0,0,0-.5-11,26.07,26.07,0,0,0-4.12-9.25,21.45,21.45,0,0,0-7.25-6.38,20.91,20.91,0,0,0-10.12-2.37,25.58,25.58,0,0,0-10.37,2.25,26.73,26.73,0,0,0-9.37,7.13,37.21,37.21,0,0,0-6.87,12.5A56.76,56.76,0,0,0,823,292.46q0,21.75,9.75,33.63T858.29,338a69.32,69.32,0,0,0,17.13-2.12q2.38-.6,5-1.44a16.35,16.35,0,0,1,20.26,9.86l2.9,7.7a117.39,117.39,0,0,1-25.37,9.13,109.2,109.2,0,0,1-23.62,2.63q-17.25,0-29.62-6.25a62.67,62.67,0,0,1-20.5-16.12,65.19,65.19,0,0,1-12-22.37,84.74,84.74,0,0,1-3.87-25.25A71.3,71.3,0,0,1,793.67,266a59.48,59.48,0,0,1,14-20.63,61.5,61.5,0,0,1,20.88-12.87A72,72,0,0,1,854,228a57.81,57.81,0,0,1,25.25,5.5,47.59,47.59,0,0,1,18.5,15.25,49.42,49.42,0,0,1,8.63,23.38q1.62,13.63-3.87,29.63h-70a40.28,40.28,0,0,1,7.88-14.62q5.12-5.87,11.63-5.87Z"/><path class="cls-1" d="M977.79,363.71a55.69,55.69,0,0,1-24.25-5.12,49.68,49.68,0,0,1-18-14.37,66.75,66.75,0,0,1-11.12-21.87A92.77,92.77,0,0,1,920.54,295a71.32,71.32,0,0,1,4.5-25.25,70.33,70.33,0,0,1,12.13-21,60.55,60.55,0,0,1,17.63-14.37A43.28,43.28,0,0,1,975.54,229a89.42,89.42,0,0,1,12.63.88,128.85,128.85,0,0,1,15.88,3.63,52,52,0,0,1-8,14.13,15.28,15.28,0,0,1-10.75,5.88,27.82,27.82,0,0,0-13,3.75,25.51,25.51,0,0,0-8.5,8.63A39.8,39.8,0,0,0,959,278.71a82.9,82.9,0,0,0-1.5,16.25,74.66,74.66,0,0,0,1.75,16.5,48.64,48.64,0,0,0,5.13,13.63,28.55,28.55,0,0,0,8.38,9.38A19.13,19.13,0,0,0,984,338q13.75,0,29-17.5V171h16.67A18.33,18.33,0,0,1,1048,189.29V329a134.36,134.36,0,0,0,.88,14.88,147.38,147.38,0,0,0,2.88,16.63h-26.93a14.7,14.7,0,0,1-5.41-5,31.64,31.64,0,0,1-3.4-6.75l-1.26-5.75-4.25,5.5q-9.75,8.75-17.62,12A39.65,39.65,0,0,1,977.79,363.71Z"/><path class="cls-1" d="M1222.67,193.71a20.7,20.7,0,0,1,5.88-14.87,20.52,20.52,0,0,1,29.25,0,20.71,20.71,0,0,1,5.88,14.88,20.5,20.5,0,1,1-41,0Z"/><path class="cls-1" d="M1225.67,360.46V252.92a21.71,21.71,0,0,1,21.71-21.71h13.29V338.43a22,22,0,0,1-22,22Z"/><path class="cls-1" d="M1284.2,342.19a13.82,13.82,0,0,1,16.92-8.75q4.4,1.27,8.29,2a89.1,89.1,0,0,0,17,1.75q9.25,0,13.5-3.87t4.25-8.62a11.6,11.6,0,0,0-4.5-9.25,54.46,54.46,0,0,0-11.25-7q-6.75-3.25-14.5-6.5a80.6,80.6,0,0,1-14.5-7.87,42.45,42.45,0,0,1-11.25-11.25q-4.5-6.62-4.5-16.62a37.35,37.35,0,0,1,2.38-12.63,31.63,31.63,0,0,1,7.88-12,44.2,44.2,0,0,1,14.38-9q8.87-3.62,21.63-3.62a124.75,124.75,0,0,1,17.38,1.25,121.51,121.51,0,0,1,20.88,5.25l-3.89,10.93a13.78,13.78,0,0,1-15.58,8.93q-2.34-.45-4.28-.74a85,85,0,0,0-12.25-.87q-7.25,0-11.37,2.88a9.33,9.33,0,0,0-4.12,8.13,11.36,11.36,0,0,0,4.5,9,54.3,54.3,0,0,0,11.25,7q6.75,3.25,14.5,6.75a88.7,88.7,0,0,1,14.5,8.25,44.28,44.28,0,0,1,11.25,11.38q4.5,6.63,4.5,16.38a35.59,35.59,0,0,1-3.75,16.38,38.57,38.57,0,0,1-10,12.5,45.37,45.37,0,0,1-14.37,7.88,52.33,52.33,0,0,1-16.87,2.75,162.81,162.81,0,0,1-22.25-1.75q-12.5-1.75-29.25-8.75Z"/><path class="cls-1" d="M1408.16,256h-20.75V236.21l20.75-5V200.46l33-10.75V311q0,12.75,5.38,19.88a16.86,16.86,0,0,0,14.13,7.13,51.58,51.58,0,0,0,8.13-.75q.91-.15,1.89-.35a10.7,10.7,0,0,1,12.38,7.23l4.1,12.88q-9.5,3.25-16.62,5a56.36,56.36,0,0,1-13.37,1.75q-24,0-36.5-13.5T1408.16,311Zm66.5,0a18.92,18.92,0,0,1-9.62-2.37,27,27,0,0,1-7.12-5.87,33.2,33.2,0,0,1-5-7.87,63.84,63.84,0,0,1-3.25-8.62h36.25V256Z"/><path class="cls-1" d="M1137.57,170c-36,1-64.57,29.87-64.57,65.88v23.26h0V293.7c0,35.8,28,64.88,64,65.41l66,.35V282.8a17.84,17.84,0,0,0-18.15-17.8H1167v58h-29.4c-16.06,0-28.6-13.24-28.6-29.3V235.55A28.22,28.22,0,0,1,1137.6,207h47.25c10,0,18.15-8.67,18.15-18.71V170Z"/></g></svg>