<?xml version="1.0" encoding="utf-8"?>
<!-- Generator: Adobe Illustrator 20.1.0, SVG Export Plug-In . SVG Version: 6.00 Build 0)  -->
<svg version="1.1" xmlns="http://www.w3.org/2000/svg" xmlns:xlink="http://www.w3.org/1999/xlink" x="0px" y="0px"
	 viewBox="0 0 1627.7 526" style="enable-background:new 0 0 1627.7 526;" xml:space="preserve">
<g id="Guides">
</g>
<g id="Layer_1">
	<g>
		<path style="fill:#3B5998;" d="M688,170h-65.1c-36.1,0-64.9,29.7-64.9,66.1v124.1c0,0,17.9,0.2,17.9,0.2c9.9,0,17.8-9.1,18.1-18.1
			l0.3-41.2h28.4c10.1,0,20.3-7.6,20.3-17.7V265h-48v-28.9c0-16.1,11.2-29.1,28-29.1h46.3c10.1,0,18.7-8.4,18.7-18.8v0.5V170z"/>
		<g>
			<linearGradient id="SVGID_1_" gradientUnits="userSpaceOnUse" x1="377.2113" y1="434.44" x2="250.6042" y2="170.4188">
				<stop  offset="0" style="stop-color:#3BEDE4"/>
				<stop  offset="1" style="stop-color:#3B5998"/>
			</linearGradient>
			<path style="fill:url(#SVGID_1_);" d="M360.5,183h65c13.8,0,24.5-11.2,24.5-25v-25H230.5c-49.7,0-90.5,40.3-90.5,90v170h25.5
				c13.8,0,24.5-11.2,24.5-25v-55h30.5c13.8,0,24.5-11.2,24.5-25v-25h-55v-40c0-22.1,18.4-40,40.5-40h49.4c-6,12-9.9,25.6-9.9,40v80
				c0,49.2,40,89.2,89,90v0h91V288c0-13.8-10.7-25-24.5-25H400v80h-39.5c-22.1,0-40.5-17.9-40.5-40v-80
				C320,200.9,338.4,183,360.5,183z"/>
		</g>
		<path style="fill:#3B5998;" d="M742.3,281.2c0.5-3.8,0.3-7.5-0.5-11c-0.8-3.5-2.2-6.6-4.1-9.2c-1.9-2.7-4.3-4.8-7.2-6.4
			c-2.9-1.6-6.3-2.4-10.1-2.4c-3.5,0-7,0.8-10.4,2.2c-3.4,1.5-6.5,3.9-9.4,7.1c-2.8,3.2-5.1,7.4-6.9,12.5
			c-1.8,5.1-2.6,11.2-2.6,18.4c0,14.5,3.2,25.7,9.8,33.6c6.5,7.9,15,11.9,25.5,11.9c5.8,0,11.5-0.7,17.1-2.1c1.6-0.4,3.2-0.9,5-1.4
			c8.3-2.7,17.2,1.7,20.3,9.9l2.9,7.7c-9,4.3-17.5,7.4-25.4,9.1c-7.9,1.8-15.8,2.6-23.6,2.6c-11.5,0-21.4-2.1-29.6-6.2
			s-15.1-9.5-20.5-16.1c-5.4-6.6-9.4-14-12-22.4c-2.6-8.3-3.9-16.8-3.9-25.2c0-10.3,1.7-19.6,5.1-27.8c3.4-8.2,8.1-15,14-20.6
			c5.9-5.6,12.9-9.9,20.9-12.9S713,228,722,228c9.2,0,17.6,1.8,25.2,5.5c7.7,3.7,13.8,8.8,18.5,15.2c4.7,6.5,7.5,14.3,8.6,23.4
			c1.1,9.1-0.2,19-3.9,29.6h-70c1.8-5.8,4.5-10.7,7.9-14.6c3.4-3.9,7.3-5.9,11.6-5.9H742.3z"/>
		<path style="fill:#3B5998;" d="M874.3,281.2c0.5-3.8,0.3-7.5-0.5-11c-0.8-3.5-2.2-6.6-4.1-9.2c-1.9-2.7-4.3-4.8-7.2-6.4
			c-2.9-1.6-6.3-2.4-10.1-2.4c-3.5,0-7,0.8-10.4,2.2c-3.4,1.5-6.5,3.9-9.4,7.1c-2.8,3.2-5.1,7.4-6.9,12.5
			c-1.8,5.1-2.6,11.2-2.6,18.4c0,14.5,3.2,25.7,9.8,33.6c6.5,7.9,15,11.9,25.5,11.9c5.8,0,11.5-0.7,17.1-2.1c1.6-0.4,3.2-0.9,5-1.4
			c8.3-2.7,17.2,1.7,20.3,9.9l2.9,7.7c-9,4.3-17.5,7.4-25.4,9.1c-7.9,1.8-15.8,2.6-23.6,2.6c-11.5,0-21.4-2.1-29.6-6.2
			s-15.1-9.5-20.5-16.1c-5.4-6.6-9.4-14-12-22.4c-2.6-8.3-3.9-16.8-3.9-25.2c0-10.3,1.7-19.6,5.1-27.8c3.4-8.2,8.1-15,14-20.6
			c5.9-5.6,12.9-9.9,20.9-12.9S845,228,854,228c9.2,0,17.6,1.8,25.2,5.5c7.7,3.7,13.8,8.8,18.5,15.2c4.7,6.5,7.5,14.3,8.6,23.4
			c1.1,9.1-0.2,19-3.9,29.6h-70c1.8-5.8,4.5-10.7,7.9-14.6c3.4-3.9,7.3-5.9,11.6-5.9H874.3z"/>
		<path style="fill:#3B5998;" d="M977.8,363.7c-9,0-17.1-1.7-24.2-5.1c-7.2-3.4-13.2-8.2-18-14.4c-4.8-6.2-8.5-13.5-11.1-21.9
			c-2.6-8.4-3.9-17.5-3.9-27.4c0-8.8,1.5-17.2,4.5-25.2s7-15,12.1-21c5.1-6,11-10.8,17.6-14.4c6.7-3.6,13.6-5.4,20.8-5.4
			c4.3,0,8.5,0.3,12.6,0.9c4.1,0.6,9.4,1.8,15.9,3.6c-2.3,5.8-5,10.5-8,14.1c-3,3.6-6.6,5.5-10.8,5.9c-5.2,0.3-9.5,1.6-13,3.8
			c-3.5,2.2-6.3,5-8.5,8.6c-2.2,3.6-3.8,7.9-4.8,12.9s-1.5,10.4-1.5,16.2c0,5.8,0.6,11.3,1.8,16.5c1.2,5.2,2.9,9.7,5.1,13.6
			c2.2,3.9,5,7,8.4,9.4c3.3,2.3,7.1,3.5,11.2,3.5c9.2,0,18.8-5.8,29-17.5V171h16.7c10.1,0,18.3,8.2,18.3,18.3V329
			c0,4.7,0.3,9.6,0.9,14.9c0.6,5.2,1.5,10.8,2.9,16.6h-26.9c-2.2-1.2-4-2.8-5.4-5c-1.4-2.2-2.6-4.4-3.4-6.8l-1.3-5.8l-4.2,5.5
			c-6.5,5.8-12.4,9.8-17.6,12S982.6,363.7,977.8,363.7z"/>
		<path style="fill:#3BC7D1;" d="M1222.7,193.7c0-5.8,2-10.8,5.9-14.9c3.9-4.1,8.8-6.1,14.6-6.1c5.8,0,10.7,2,14.6,6.1
			c3.9,4.1,5.9,9,5.9,14.9c0,5.8-2,10.7-5.9,14.6c-3.9,3.9-8.8,5.9-14.6,5.9c-5.8,0-10.7-2-14.6-5.9
			C1224.6,204.4,1222.7,199.5,1222.7,193.7z"/>
		<path style="fill:#3BC7D1;" d="M1225.7,360.5V252.9c0-12,9.7-21.7,21.7-21.7h13.3v107.2c0,12.2-9.9,22-22,22H1225.7z"/>
		<path style="fill:#3BC7D1;" d="M1284.2,342.2c2.4-7,9.8-10.8,16.9-8.8c2.9,0.8,5.7,1.5,8.3,2c6,1.2,11.7,1.8,17,1.8
			c6.2,0,10.7-1.3,13.5-3.9c2.8-2.6,4.2-5.5,4.2-8.6c0-3.7-1.5-6.8-4.5-9.2s-6.8-4.8-11.2-7c-4.5-2.2-9.3-4.3-14.5-6.5
			c-5.2-2.2-10-4.8-14.5-7.9c-4.5-3.1-8.2-6.8-11.2-11.2c-3-4.4-4.5-10-4.5-16.6c0-4,0.8-8.2,2.4-12.6c1.6-4.4,4.2-8.4,7.9-12
			c3.7-3.6,8.5-6.6,14.4-9c5.9-2.4,13.1-3.6,21.6-3.6c5.7,0,11.5,0.4,17.4,1.2c5.9,0.8,12.9,2.6,20.9,5.2l-3.9,10.9
			c-2.3,6.4-8.9,10.2-15.6,8.9c-1.6-0.3-3-0.5-4.3-0.7c-4-0.6-8.1-0.9-12.2-0.9c-4.8,0-8.6,1-11.4,2.9c-2.8,1.9-4.1,4.6-4.1,8.1
			s1.5,6.5,4.5,9s6.8,4.8,11.2,7c4.5,2.2,9.3,4.4,14.5,6.8c5.2,2.3,10,5.1,14.5,8.2c4.5,3.2,8.2,7,11.2,11.4c3,4.4,4.5,9.9,4.5,16.4
			c0,6-1.2,11.5-3.8,16.4c-2.5,4.9-5.8,9.1-10,12.5c-4.2,3.4-9,6-14.4,7.9c-5.4,1.8-11,2.8-16.9,2.8c-6.5,0-13.9-0.6-22.2-1.8
			c-8.3-1.2-18.1-4.1-29.2-8.8L1284.2,342.2z"/>
		<path style="fill:#3BC7D1;" d="M1408.2,256h-20.8v-19.8l20.8-5v-30.8l33-10.8V311c0,8.5,1.8,15.1,5.4,19.9
			c3.6,4.8,8.3,7.1,14.1,7.1c2.3,0,5-0.2,8.1-0.8c0.6-0.1,1.2-0.2,1.9-0.4c5.4-1.1,10.7,2,12.4,7.2l4.1,12.9
			c-6.3,2.2-11.9,3.8-16.6,5c-4.8,1.2-9.2,1.8-13.4,1.8c-16,0-28.2-4.5-36.5-13.5c-8.3-9-12.5-22.1-12.5-39.2V256z M1474.7,256
			c-3.7,0-6.9-0.8-9.6-2.4c-2.8-1.6-5.1-3.5-7.1-5.9c-2-2.3-3.7-5-5-7.9c-1.3-2.9-2.4-5.8-3.2-8.6h36.2V256H1474.7z"/>
		<path style="fill:#3BC7D1;" d="M1137.6,170c-36,1-64.6,29.9-64.6,65.9v23.3l0,0v34.6c0,35.8,28,64.9,64,65.4l66,0.3v-76.7
			c0-10-8.1-17.8-18.2-17.8H1167v58h-29.4c-16.1,0-28.6-13.2-28.6-29.3v-58.2c0-16.1,12.5-28.5,28.6-28.5h47.3
			c10,0,18.2-8.7,18.2-18.7V170H1137.6z"/>
	</g>
</g>
</svg>
