<?xml version="1.0" standalone="no"?>
<!DOCTYPE svg PUBLIC "-//W3C//DTD SVG 20010904//EN"
 "http://www.w3.org/TR/2001/REC-SVG-20010904/DTD/svg10.dtd">
<svg version="1.0" xmlns="http://www.w3.org/2000/svg"
 width="16.000000pt" height="16.000000pt" viewBox="0 0 16.000000 16.000000"
 preserveAspectRatio="xMidYMid meet">
<metadata>
Created by potrace 1.11, written by Peter Selinger 2001-2013
</metadata>
<g transform="translate(0.000000,16.000000) scale(0.001600,-0.001600)"
fill="#000000" stroke="none">
<path d="M0 5000 l0 -5000 1793 1 c985 1 1784 4 1775 6 -22 6 -22 12 -2 34 12
13 25 16 46 12 22 -4 34 0 48 15 15 16 28 20 57 16 31 -4 35 -3 20 6 -20 13
-14 32 8 23 8 -3 15 0 15 6 0 6 12 11 26 11 18 0 28 6 31 21 4 12 11 18 20 15
8 -3 30 -6 49 -6 32 0 34 -2 34 -35 0 -26 -4 -35 -17 -36 -15 0 -15 -2 2 -8
29 -12 35 -5 35 39 0 34 -4 41 -25 46 -47 12 -23 35 48 48 26 5 37 12 34 20
-4 9 2 11 18 8 13 -2 25 -13 28 -23 8 -29 37 -24 37 6 0 16 -6 25 -15 25 -8 0
-15 4 -15 10 0 13 28 26 73 34 20 4 37 11 37 16 0 19 38 10 43 -10 3 -11 12
-20 21 -20 12 0 16 10 16 39 0 33 4 40 30 51 17 7 30 16 30 21 0 5 23 9 50 9
38 0 50 4 50 15 0 8 7 15 15 15 8 0 15 4 15 10 0 19 60 40 117 40 40 0 53 3
43 10 -8 5 -26 6 -39 3 -17 -4 -22 -2 -19 8 3 8 15 16 28 17 12 2 37 12 54 22
18 10 47 21 64 25 18 3 35 12 39 18 10 15 88 54 125 63 15 3 32 12 39 20 6 8
16 14 21 14 12 0 59 36 53 41 -2 2 17 2 41 0 43 -3 44 -4 44 -39 l0 -36 36 35
c34 33 35 34 12 40 l-23 5 28 26 c15 14 27 30 27 37 0 6 17 11 40 11 36 0 40
-2 40 -25 0 -14 5 -25 10 -25 6 0 10 11 10 24 0 14 13 38 30 54 17 17 30 35
30 41 0 10 43 15 110 12 14 0 19 2 13 5 -18 8 -16 34 2 34 8 0 15 5 15 10 0 6
5 10 11 10 6 0 8 -10 5 -22 -3 -13 -3 -17 0 -10 8 17 34 15 34 -3 0 -9 -7 -18
-15 -21 -28 -11 -15 -24 25 -24 22 0 40 5 40 10 0 6 -5 10 -11 10 -6 0 -4 7 5
15 8 8 31 15 50 15 20 0 36 5 36 11 0 8 -19 10 -64 5 -59 -6 -64 -5 -69 15 -5
19 -3 21 24 15 16 -3 29 -1 29 4 0 6 7 10 15 10 8 0 22 11 31 25 9 14 20 25
24 25 13 0 21 -33 11 -43 -19 -19 1 -37 40 -37 32 0 39 3 39 20 0 11 6 20 13
20 6 0 23 9 36 19 l24 18 -33 7 c-41 8 -63 -9 -55 -41 4 -18 1 -23 -15 -23
-14 0 -20 7 -20 24 0 48 9 56 64 56 48 1 50 1 31 17 -19 15 -19 15 8 9 26 -6
28 -5 22 14 -6 19 -5 20 13 11 16 -9 21 -7 25 9 4 17 14 20 69 21 34 1 55 3
45 6 -21 5 -18 28 4 28 18 1 61 24 74 41 11 14 55 2 55 -16 0 -5 9 -10 20 -10
13 0 20 7 20 20 0 12 -7 20 -16 20 -19 0 -13 25 7 26 21 1 69 26 69 36 0 4 38
8 85 8 83 0 111 11 60 24 -32 8 -32 24 0 32 13 3 27 15 31 26 4 15 9 17 17 9
17 -17 46 -13 59 9 18 28 68 28 68 0 0 -11 5 -20 10 -20 6 0 10 9 10 20 0 11
-4 20 -10 20 -5 0 -10 9 -10 20 0 22 17 25 100 21 33 -1 41 1 30 8 -8 6 -23 8
-32 5 -10 -3 -18 0 -18 6 0 6 8 13 18 16 9 3 34 14 55 25 22 10 54 19 73 19
28 0 34 -4 34 -21 0 -26 33 -22 38 5 4 20 -16 38 -35 31 -7 -2 -15 0 -18 6 -4
5 2 12 12 15 43 15 83 36 83 44 0 6 13 10 29 10 16 0 32 6 35 13 5 9 7 9 12
-1 5 -10 16 -5 40 19 20 19 53 38 79 44 l44 12 3 -36 3 -36 24 24 c17 17 20
25 11 31 -10 6 -6 15 15 34 15 14 25 31 22 38 -3 10 9 12 50 10 47 -3 57 -1
77 21 27 29 66 27 66 -4 0 -14 7 -19 25 -19 18 0 25 5 25 20 0 15 -7 20 -25
20 -18 0 -25 5 -25 20 0 20 13 24 80 21 14 0 19 2 13 5 -18 8 -16 34 2 34 8 0
15 5 15 10 0 6 5 10 11 10 6 0 8 -10 5 -22 -3 -13 -3 -17 0 -10 8 17 34 15 34
-3 0 -7 -8 -19 -18 -24 -13 -8 -7 -10 28 -10 25 0 39 3 33 6 -24 9 14 33 51
33 20 0 36 5 36 11 0 8 -19 10 -64 5 -59 -6 -64 -5 -69 15 -5 19 -2 21 23 16
16 -4 30 -2 32 4 4 13 78 1 78 -12 0 -5 18 -9 40 -9 33 0 40 3 40 20 0 11 6
20 13 20 6 0 23 9 36 19 l24 18 -38 7 c-42 8 -55 -2 -55 -41 0 -14 -6 -23 -15
-23 -8 0 -15 5 -15 10 0 6 -6 10 -12 9 -7 -1 -22 -1 -33 0 -20 2 -20 2 0 16
10 9 24 14 30 12 5 -2 15 6 20 17 10 20 18 21 148 20 75 -1 137 3 137 7 0 5
-12 9 -26 9 -16 0 -23 4 -18 11 3 6 0 15 -7 20 -8 5 -350 9 -760 9 -449 0
-788 4 -850 11 -387 39 -774 198 -1069 438 -364 296 -626 723 -715 1166 -45
224 -47 278 -43 1390 4 1120 3 1081 53 1308 21 95 70 243 111 339 19 44 34 84
34 89 0 7 -224 9 -617 7 -597 -4 -621 -5 -695 -25 -180 -51 -316 -131 -436
-258 -125 -131 -212 -307 -241 -485 -7 -39 -11 -259 -11 -552 l0 -488 620 0
620 0 0 -308 c0 -175 -5 -334 -11 -368 -28 -154 -145 -312 -286 -387 -124 -65
-143 -67 -565 -67 l-378 0 0 -655 c0 -442 -4 -671 -11 -707 -42 -200 -215
-381 -415 -433 -46 -12 -124 -15 -381 -15 l-323 0 0 1993 c0 1298 4 2023 10
2082 58 501 308 977 685 1304 241 209 537 365 840 441 248 63 106 60 2906 60
l2549 0 0 -328 c0 -258 -3 -340 -15 -385 -46 -176 -181 -322 -361 -390 -59
-22 -59 -22 -924 -27 -855 -6 -866 -6 -945 -28 -320 -89 -553 -322 -647 -648
l-23 -79 0 -1050 c0 -1171 -5 -1089 70 -1267 89 -211 280 -398 487 -478 161
-62 157 -62 716 -67 l512 -5 0 906 0 906 328 0 c262 0 340 -3 387 -15 144 -38
285 -150 353 -283 70 -136 66 -57 67 -1419 0 -678 4 -1228 8 -1224 8 8 13 93
16 269 0 53 5 81 11 77 6 -3 10 2 10 13 0 10 6 19 14 19 8 0 39 12 70 27 61
30 96 28 96 -5 0 -26 33 -22 38 5 5 22 -16 38 -41 30 -9 -3 -17 0 -17 6 0 6 8
13 18 16 9 3 34 14 55 25 22 10 53 19 71 19 24 0 41 10 70 39 36 37 93 58 135
52 8 -2 28 13 45 32 25 28 40 35 81 40 38 4 55 11 73 34 16 18 26 24 29 16 2
-7 12 -13 20 -13 10 0 14 -6 10 -20 -5 -21 7 -25 37 -14 25 10 19 34 -8 34
-16 0 -26 7 -29 21 -5 19 -2 21 24 15 16 -3 29 -1 29 4 0 5 12 8 28 6 15 -2
21 -1 15 1 -18 6 -16 17 7 38 16 15 22 16 35 5 12 -10 19 -10 27 -2 18 18 38
14 38 -6 0 -10 -15 -24 -37 -34 l-38 -17 41 0 c34 -1 42 2 40 16 -1 14 8 19
42 21 54 4 55 20 0 24 -59 4 -63 28 -4 28 25 0 46 -4 46 -10 0 -5 18 -10 40
-10 33 0 40 3 40 20 0 11 6 20 13 20 6 0 23 9 36 19 l24 18 -38 7 c-42 8 -55
-2 -55 -41 0 -14 -6 -23 -15 -23 -8 0 -15 5 -15 11 0 6 -8 8 -18 5 -9 -3 -23
-2 -31 3 -20 13 -2 34 24 28 17 -3 25 1 28 15 4 15 16 18 69 19 34 1 55 3 46
6 -23 6 -23 22 0 29 9 3 25 10 34 15 10 5 25 9 33 9 18 0 20 16 3 24 -7 4 -2
4 12 1 14 -2 36 -5 50 -6 22 0 21 -2 -10 -13 -19 -7 -36 -20 -38 -29 -2 -10
-10 -17 -17 -17 -8 0 -17 -4 -20 -10 -4 -6 9 -10 32 -9 21 0 32 3 26 6 -22 8
-14 23 11 23 13 0 31 3 40 6 21 8 21 54 0 54 -19 0 -13 25 7 26 28 1 64 26 77
51 9 22 12 732 12 3450 l0 3423 -5000 0 -5000 0 0 -5000z m7839 -2976 c8 -7
-73 -2 -104 6 -19 5 -6 6 35 3 36 -3 67 -7 69 -9z"/>
<path d="M9945 3050 c-3 -5 3 -10 15 -10 12 0 18 5 15 10 -3 6 -10 10 -15 10
-5 0 -12 -4 -15 -10z"/>
<path d="M9738 2883 c7 -3 16 -2 19 1 4 3 -2 6 -13 5 -11 0 -14 -3 -6 -6z"/>
<path d="M9040 2615 c0 -22 3 -24 19 -16 31 17 34 41 6 41 -20 0 -25 -5 -25
-25z"/>
<path d="M8880 2535 c0 -22 3 -24 19 -16 31 17 34 41 6 41 -20 0 -25 -5 -25
-25z"/>
<path d="M8550 2410 c0 -5 12 -10 28 -10 21 0 24 2 12 10 -20 13 -40 13 -40 0z"/>
<path d="M8538 2275 c-2 -25 0 -45 4 -45 5 0 8 20 8 45 0 25 -2 45 -4 45 -2 0
-6 -20 -8 -45z"/>
<path d="M7968 2043 c28 -2 76 -2 105 0 28 2 5 3 -53 3 -58 0 -81 -1 -52 -3z"/>
<path d="M8018 2013 c12 -2 32 -2 45 0 12 2 2 4 -23 4 -25 0 -35 -2 -22 -4z"/>
<path d="M7738 1923 c7 -3 16 -2 19 1 4 3 -2 6 -13 5 -11 0 -14 -3 -6 -6z"/>
<path d="M6880 1575 c0 -22 3 -24 19 -16 31 17 34 41 6 41 -20 0 -25 -5 -25
-25z"/>
<path d="M6105 1210 c-3 -5 3 -10 15 -10 12 0 18 5 15 10 -3 6 -10 10 -15 10
-5 0 -12 -4 -15 -10z"/>
<path d="M5945 1130 c-3 -5 3 -10 15 -10 12 0 18 5 15 10 -3 6 -10 10 -15 10
-5 0 -12 -4 -15 -10z"/>
<path d="M5826 1094 c-9 -24 -7 -54 4 -54 6 0 10 5 10 10 0 6 5 10 10 10 6 0
23 8 37 17 l26 17 -24 7 c-40 12 -57 10 -63 -7z"/>
<path d="M5765 1050 c-3 -5 1 -10 9 -10 9 0 16 5 16 10 0 6 -4 10 -9 10 -6 0
-13 -4 -16 -10z"/>
<path d="M5898 1043 c7 -3 16 -2 19 1 4 3 -2 6 -13 5 -11 0 -14 -3 -6 -6z"/>
<path d="M5738 963 c7 -3 16 -2 19 1 4 3 -2 6 -13 5 -11 0 -14 -3 -6 -6z"/>
<path d="M5360 840 c0 -22 16 -26 40 -10 13 9 13 11 0 20 -24 16 -40 12 -40
-10z"/>
<path d="M5260 791 c0 -6 5 -13 10 -16 6 -3 10 1 10 9 0 9 -4 16 -10 16 -5 0
-10 -4 -10 -9z"/>
<path d="M4880 608 l0 -42 36 35 c35 34 35 34 12 41 -44 12 -48 10 -48 -34z"/>
<path d="M5090 630 c0 -5 7 -10 15 -10 8 0 15 5 15 10 0 6 -7 10 -15 10 -8 0
-15 -4 -15 -10z"/>
<path d="M4720 570 c0 -5 10 -10 23 -10 18 0 19 2 7 10 -19 13 -30 13 -30 0z"/>
<path d="M4778 553 c7 -3 16 -2 19 1 4 3 -2 6 -13 5 -11 0 -14 -3 -6 -6z"/>
<path d="M4720 530 c0 -5 7 -10 15 -10 8 0 15 5 15 10 0 6 -7 10 -15 10 -8 0
-15 -4 -15 -10z"/>
<path d="M4450 410 c-12 -8 -11 -10 8 -10 12 0 22 5 22 10 0 13 -11 13 -30 0z"/>
<path d="M4288 323 c6 -2 18 -2 25 0 6 3 1 5 -13 5 -14 0 -19 -2 -12 -5z"/>
<path d="M4400 269 c0 -5 5 -7 10 -4 6 3 10 8 10 11 0 2 -4 4 -10 4 -5 0 -10
-5 -10 -11z"/>
<path d="M4125 250 c-3 -5 3 -10 14 -10 12 0 21 5 21 10 0 6 -6 10 -14 10 -8
0 -18 -4 -21 -10z"/>
<path d="M3965 170 c-3 -5 3 -10 14 -10 12 0 21 5 21 10 0 6 -6 10 -14 10 -8
0 -18 -4 -21 -10z"/>
<path d="M3840 126 c0 -31 16 -33 50 -6 17 13 20 20 10 20 -8 0 -25 3 -37 6
-20 5 -23 2 -23 -20z"/>
<path d="M4080 109 c0 -5 5 -7 10 -4 6 3 10 8 10 11 0 2 -4 4 -10 4 -5 0 -10
-5 -10 -11z"/>
<path d="M3760 90 c0 -5 9 -10 21 -10 11 0 17 5 14 10 -3 6 -13 10 -21 10 -8
0 -14 -4 -14 -10z"/>
<path d="M3680 40 c0 -22 16 -26 40 -10 13 9 13 11 0 20 -24 16 -40 12 -40
-10z"/>
<path d="M3920 29 c0 -5 5 -7 10 -4 6 3 10 8 10 11 0 2 -4 4 -10 4 -5 0 -10
-5 -10 -11z"/>
<path d="M3600 10 c0 -5 9 -10 21 -10 11 0 17 4 14 10 -8 13 -35 13 -35 0z"/>
</g>
</svg>
